<svg width="100" height="77" viewBox="0 0 100 77" fill="none" xmlns="http://www.w3.org/2000/svg">
<g clip-path="url(#clip0_69_43)">
<path d="M88.2111 54.9093L95.6553 56.9121L94.731 60.3755L87.2868 58.373L88.2111 54.9093Z" fill="#FDD87A"/>
<path d="M73.4427 51.9131L77.6186 53.0366L77.1808 54.6774L73.0049 53.5539L73.4427 51.9131Z" fill="#FDD87A"/>
<path d="M80.457 50.9908L86.3806 52.0395L85.9237 54.6415L80 53.5928L80.457 50.9908Z" fill="#FDD87A"/>
<path d="M68.5694 49.8522L71.5312 50.3765L71.4006 51.1199L68.4387 50.5956L68.5694 49.8522Z" fill="#FDD87A"/>
<path d="M88.6447 47.282H96.3515V50.8677H88.6447V47.282Z" fill="#FDD87A"/>
<path d="M73.6071 48.2256H77.9305V49.9241H73.6071V48.2256Z" fill="#FDD87A"/>
<path d="M80.1445 45.5119L86.1367 44.9855L86.366 47.6177L80.3739 48.1441L80.1445 45.5119Z" fill="#FDD87A"/>
<path d="M68.3684 47.5013L71.3645 47.238L71.4301 47.9901L68.434 48.2533L68.3684 47.5013Z" fill="#FDD87A"/>
<path d="M87.0972 39.8018L94.5414 37.7993L95.4656 41.2628L88.0214 43.2655L87.0972 39.8018Z" fill="#FDD87A"/>
<path d="M72.8152 44.6209L76.9912 43.4976L77.4291 45.1382L73.253 46.2617L72.8152 44.6209Z" fill="#FDD87A"/>
<path d="M78.4305 40.301L84.0827 38.2354L84.9827 40.7183L79.3304 42.7837L78.4305 40.301Z" fill="#FDD87A"/>
<path d="M67.5684 45.2826L70.3945 44.2499L70.6517 44.9593L67.8256 45.992L67.5684 45.2826Z" fill="#FDD87A"/>
<path d="M83.6743 32.9788L90.3485 29.11L92.1342 32.2153L85.46 36.0841L83.6743 32.9788Z" fill="#FDD87A"/>
<path d="M71.1212 41.345L74.8652 39.1747L75.7111 40.6456L71.9671 42.816L71.1212 41.345Z" fill="#FDD87A"/>
<path d="M75.4314 35.7129L80.3586 32.249L81.868 34.4133L76.9408 37.8774L75.4314 35.7129Z" fill="#FDD87A"/>
<path d="M66.2237 43.3474L68.6872 41.6155L69.1186 42.2339L66.6549 43.9659L66.2237 43.3474Z" fill="#FDD87A"/>
<path d="M78.609 27.2776L84.0585 21.8063L86.5838 24.3418L81.1344 29.8132L78.609 27.2776Z" fill="#FDD87A"/>
<path d="M68.6404 38.6208L71.6974 35.5515L72.8936 36.7526L69.8367 39.8218L68.6404 38.6208Z" fill="#FDD87A"/>
<path d="M71.3519 32.0607L75.2182 27.4343L77.2342 29.1326L73.3677 33.759L71.3519 32.0607Z" fill="#FDD87A"/>
<path d="M64.4259 41.8278L66.3592 39.5146L66.9351 39.9998L65.0019 42.313L64.4259 41.8278Z" fill="#FDD87A"/>
<path d="M72.2466 23.087L76.1 16.3859L79.193 18.1788L75.3397 24.8799L72.2466 23.087Z" fill="#FDD87A"/>
<path d="M65.5417 36.6341L67.7034 32.875L69.1686 33.7243L67.007 37.4833L65.5417 36.6341Z" fill="#FDD87A"/>
<path d="M66.4697 29.5929L69.0118 24.1195L71.397 25.2362L68.8549 30.7094L66.4697 29.5929Z" fill="#FDD87A"/>
<path d="M62.2977 40.827L63.5688 38.0903L64.2502 38.4092L62.9791 41.1459L62.2977 40.827Z" fill="#FDD87A"/>
<path d="M65.0209 20.6924L67.0156 13.2184L70.4652 14.1465L68.4707 21.6206L65.0209 20.6924Z" fill="#FDD87A"/>
<path d="M62.0367 35.5204L63.1556 31.3275L64.7898 31.7672L63.6709 35.9599L62.0367 35.5204Z" fill="#FDD87A"/>
<path d="M61.118 28.4779L62.1626 22.5304L64.7541 22.9892L63.7096 28.9367L61.118 28.4779Z" fill="#FDD87A"/>
<path d="M59.984 40.4133L60.5062 37.4396L61.2466 37.5707L60.7244 40.5443L59.984 40.4133Z" fill="#FDD87A"/>
<path d="M3.47745 60.1091H10.8083L14.7556 24.8174L30.6391 57.3726H35.6203L52.6316 23.4963L56.109 60.1091H67.3872L60.5263 6.22794H54.6053L33.6466 47.1814L15.4135 6.22794H11.4662L3.47745 60.1091Z" fill="#1E1B16"/>
<path d="M18.0451 6.22794H23.5902L33.9286 31.0453L46.1466 6.22794H51.6917L33.9286 41.1422L18.0451 6.22794Z" fill="#1E1B16"/>
<path d="M62.406 62.7512C45.0188 62.5625 30.2632 73.0368 30.2632 73.0368C30.2632 73.0368 40.8835 66.5257 52.8196 66.5257C67.1993 66.5257 66.3534 71.81 77.6316 71.81C90.8835 71.81 99.906 63.0343 99.906 63.0343C99.906 63.0343 93.891 68.3186 88.3459 68.3186C79.7932 68.3186 73.6842 62.7512 62.406 62.7512Z" fill="#295B96"/>
<path d="M49.6241 53.0343C32.2368 52.8456 17.4812 63.3199 17.4812 63.3199C17.4812 63.3199 28.1015 56.8088 40.0376 56.8088C54.4173 56.8088 53.5714 62.0931 64.8496 62.0931C78.1015 62.0931 87.1241 53.3174 87.1241 53.3174C87.1241 53.3174 81.109 58.6017 75.5639 58.6017C67.0113 58.6017 60.9023 53.0343 49.6241 53.0343Z" fill="#33A8BC"/>
<path d="M35.7143 43.0319C18.3271 42.8431 3.57143 53.3174 3.57143 53.3174C3.57143 53.3174 14.1917 46.8064 26.1278 46.8064C40.5075 46.8064 39.6617 52.0907 50.9398 52.0907C64.1917 52.0907 73.2143 43.315 73.2143 43.315C73.2143 43.315 67.1992 48.5993 61.6541 48.5993C53.1015 48.5993 46.9925 43.0319 35.7143 43.0319Z" fill="#A9D6DC"/>
<path d="M76.1278 10.2855V0.377449H0.375938V76.6225H75.7519" stroke="#AA887F" stroke-width="3" stroke-linecap="round" stroke-linejoin="bevel"/>
</g>
<defs>
<clipPath id="clip0_69_43">
<rect width="100" height="77" fill="white"/>
</clipPath>
</defs>
</svg>
